<svg id="Capa_1" enable-background="new 0 0 512 512" height="512" viewBox="0 0 512 512" width="512" xmlns="http://www.w3.org/2000/svg">
<style>
  path {
    fill: #3a9121;
  }
</style>
<g><path d="m140 422h30v90h-30z"/><path d="m165.09 235.901c-5.721-5.201-14.459-5.201-20.18 0l-140 127.273c-6.13 5.573-6.582 15.06-1.009 21.189 5.572 6.129 15.059 6.58 21.189 1.009l4.91-4.464v116.092c0 8.284 6.716 15 15 15h65v-105c0-8.284 6.716-15 15-15h60c8.284 0 15 6.716 15 15v105h65c8.284 0 15-6.716 15-15v-116.092l4.91 4.464c2.874 2.613 6.485 3.901 10.085 3.901 4.079 0 8.144-1.654 11.104-4.91 5.573-6.13 5.121-15.617-1.009-21.189zm4.91 126.099h-30c-8.284 0-15-6.716-15-15s6.716-15 15-15h30c8.284 0 15 6.716 15 15s-6.716 15-15 15z"/><path d="m507.607 356.394-40-40c-5.857-5.858-15.355-5.858-21.213 0l-40 40c-5.858 5.858-5.858 15.355 0 21.213 5.857 5.858 15.355 5.858 21.213 0l14.393-14.394v93.787c0 13.785-11.215 25-25 25h-90c-8.284 0-15 6.716-15 15s6.716 15 15 15h90c30.327 0 55-24.673 55-55v-93.787l14.394 14.393c2.928 2.93 6.767 4.394 10.606 4.394s7.678-1.464 10.606-4.394c5.858-5.857 5.858-15.354.001-21.212z"/><path d="m44.394 245.607c2.928 2.929 6.767 4.393 10.606 4.393s7.678-1.464 10.606-4.394l40-40c5.858-5.858 5.858-15.355 0-21.213-5.857-5.858-15.355-5.858-21.213 0l-14.393 14.394v-143.787c0-13.785 11.215-25 25-25h160c8.284 0 15-6.716 15-15s-6.716-15-15-15h-160c-30.327 0-55 24.673-55 55v143.787l-14.394-14.393c-5.857-5.858-15.355-5.858-21.213 0s-5.858 15.355 0 21.213z"/><path d="m205.901 152.363c5.572 6.129 15.059 6.581 21.189 1.009l4.91-4.464v116.092c0 8.284 6.716 15 15 15h65v-105c0-8.284 6.716-15 15-15h60c8.284 0 15 6.716 15 15v105h65c8.284 0 15-6.716 15-15v-116.092l4.91 4.464c2.874 2.613 6.485 3.901 10.085 3.901 4.079 0 8.144-1.654 11.104-4.91 5.573-6.13 5.121-15.617-1.009-21.189l-140-127.273c-5.721-5.201-14.459-5.201-20.18 0l-140 127.273c-6.13 5.573-6.582 15.059-1.009 21.189zm136.099-52.363h30c8.284 0 15 6.716 15 15s-6.716 15-15 15h-30c-8.284 0-15-6.716-15-15s6.716-15 15-15z"/><path d="m342 190h30v90h-30z"/></g></svg>
